<svg width="18" height="14" viewBox="0 0 18 14" fill="none" xmlns="http://www.w3.org/2000/svg">
<path d="M8.99613 8.5939L9.24544 8.59506C12.6172 8.62669 14.5333 9.31358 14.5333 11.2137C14.5333 13.0691 12.7017 13.7795 9.48843 13.843L8.99613 13.8477C5.46923 13.8477 3.45897 13.1745 3.45897 11.2279C3.45897 9.2792 5.47729 8.5939 8.99613 8.5939ZM8.99613 9.81903C6.14465 9.81903 4.6857 10.3144 4.6857 11.2279C4.6857 12.1351 6.1414 12.6226 8.99613 12.6226C11.8468 12.6226 13.3066 12.1268 13.3066 11.2137C13.3066 10.3067 11.8504 9.81903 8.99613 9.81903ZM14.7559 8.08505C15.1827 8.11444 15.6024 8.17495 15.9951 8.26346C16.8693 8.43439 17.5263 8.76176 17.8315 9.40042C18.0562 9.87223 18.0562 10.4208 17.8315 10.8939C17.5285 11.5301 16.8825 11.853 16.0008 12.0341C15.669 12.1023 15.3447 11.8889 15.2764 11.5575C15.2082 11.2261 15.4219 10.9022 15.7537 10.8341C16.2872 10.7245 16.637 10.5497 16.7234 10.3683C16.7899 10.2283 16.7899 10.0656 16.724 9.9273C16.6365 9.74406 16.2837 9.56828 15.7426 9.46223C15.3946 9.38402 15.0367 9.33242 14.6715 9.30727C14.3336 9.284 14.0785 8.99152 14.1018 8.65401C14.1251 8.31651 14.418 8.06177 14.7559 8.08505ZM3.89807 8.65401C3.92138 8.99152 3.66631 9.284 3.32836 9.30727C3.05448 9.32614 2.78471 9.35988 2.51305 9.41005L2.24053 9.46577C1.71641 9.56824 1.36396 9.74391 1.27646 9.92762C1.21018 10.0661 1.21018 10.2278 1.27729 10.3684C1.36343 10.5498 1.71294 10.7246 2.24623 10.8341C2.57804 10.9022 2.79171 11.2261 2.72348 11.5575C2.65524 11.8889 2.33095 12.1023 1.99914 12.0341C1.11701 11.853 0.471119 11.53 0.169406 10.8944C-0.0564291 10.4213 -0.0564292 9.87174 0.169169 9.40034C0.452961 8.8045 1.0442 8.47951 1.81918 8.30267L1.98802 8.267C2.39756 8.17495 2.81724 8.11444 3.24396 8.08505C3.58191 8.06177 3.87476 8.31651 3.89807 8.65401ZM8.99613 0C11.0861 0 12.7648 1.67655 12.7648 3.7638C12.7648 5.85165 11.0862 7.52834 8.99613 7.52834C6.90603 7.52834 5.22743 5.85165 5.22743 3.7638C5.22743 1.67655 6.90617 0 8.99613 0ZM13.6226 0.769278C15.2719 0.769278 16.6094 2.10451 16.6094 3.75144C16.6094 5.39838 15.2719 6.73361 13.6226 6.73361C13.2839 6.73361 13.0092 6.45935 13.0092 6.12104C13.0092 5.78273 13.2839 5.50848 13.6226 5.50848C14.5945 5.50848 15.3827 4.72164 15.3827 3.75144C15.3827 2.78125 14.5945 1.99441 13.6226 1.99441C13.2839 1.99441 13.0092 1.72015 13.0092 1.38184C13.0092 1.04353 13.2839 0.769278 13.6226 0.769278ZM4.3773 0.769278C4.71605 0.769278 4.99066 1.04353 4.99066 1.38184C4.99066 1.72015 4.71605 1.99441 4.3773 1.99441C3.40543 1.99441 2.61722 2.78125 2.61722 3.75144C2.61722 4.72164 3.40543 5.50848 4.3773 5.50848C4.71605 5.50848 4.99066 5.78273 4.99066 6.12104C4.99066 6.45935 4.71605 6.73361 4.3773 6.73361C2.72805 6.73361 1.3905 5.39838 1.3905 3.75144C1.3905 2.10451 2.72805 0.769278 4.3773 0.769278ZM8.99613 1.22513C7.58367 1.22513 6.45416 2.35317 6.45416 3.7638C6.45416 5.17508 7.58357 6.30321 8.99613 6.30321C10.4087 6.30321 11.5381 5.17508 11.5381 3.7638C11.5381 2.35317 10.4086 1.22513 8.99613 1.22513Z" fill="#65ACFA"/>
</svg>
